<svg width="317" height="39" viewBox="0 0 317 39" fill="none" xmlns="http://www.w3.org/2000/svg">
<path fill-rule="evenodd" clip-rule="evenodd" d="M20.6743 0.0426025C26.9823 0.0426025 31.2238 2.37452 33.2902 3.80547C34.4336 4.65344 34.4865 5.7134 33.7252 6.87936L32.7464 8.4163C31.9851 9.63526 30.9533 9.74125 29.6468 8.94628C27.9625 7.88632 24.9159 6.29638 20.9462 6.29638C12.5175 6.29638 8.0041 12.2852 8.0041 19.2279C8.0041 26.278 12.6807 32.6908 21.0006 32.6908C25.3523 32.6908 28.668 30.6769 30.4639 29.4035C31.6588 28.5569 32.7464 28.5569 33.6165 29.7759L34.7054 31.2068C35.5197 32.2668 35.4654 33.3798 34.3792 34.2807C32.204 35.9767 27.5804 38.9446 20.7287 38.9446C8.60226 38.9446 0.771729 30.4119 0.771729 19.3339C0.771729 8.4163 8.98292 0.0426025 20.6743 0.0426025Z" fill="white"/>
<path fill-rule="evenodd" clip-rule="evenodd" d="M39.8687 13.5041C39.8687 12.0731 40.63 11.2782 42.0982 11.2782H44.219C45.6872 11.2782 46.5029 12.0731 46.5029 13.5041V16.048C46.5029 17.0549 46.3397 17.9029 46.3397 17.9029H46.4485C47.5374 14.67 50.5813 11.0662 54.4979 11.0662C56.0205 11.0662 56.5643 11.8081 56.5643 13.2921V15.359C56.5643 16.79 55.6943 17.5849 54.2246 17.5849C49.1688 17.5849 46.7204 22.4607 46.7204 27.3909V36.084C46.7204 37.5666 45.9591 38.3085 44.4908 38.3085H42.0982C40.63 38.3085 39.8687 37.5666 39.8687 36.084V13.5041Z" fill="white"/>
<path fill-rule="evenodd" clip-rule="evenodd" d="M77.2283 21.7188C77.1195 17.9559 74.7812 15.73 71.6273 15.73C68.0926 15.73 65.5912 18.1149 64.9387 21.7188H77.2283ZM71.7904 10.6422C79.6753 10.6422 84.08 16.101 84.08 23.5207C84.08 24.6881 83.0468 25.801 81.6873 25.801H64.7755C65.2106 30.6768 68.9083 33.2208 73.0955 33.2208C75.6513 33.2208 77.772 32.2668 79.0771 31.4718C80.4366 30.8358 81.4154 30.9935 82.1223 32.2138L82.7749 33.2738C83.4274 34.4927 83.2099 35.5527 82.0136 36.2416C80.2191 37.3546 76.9564 38.9445 72.6061 38.9445C63.4161 38.9445 57.7063 32.4788 57.7063 24.7941C57.7063 16.472 63.4704 10.6422 71.7904 10.6422Z" fill="white"/>
<path fill-rule="evenodd" clip-rule="evenodd" d="M86.8518 13.7691C86.4167 12.2852 87.178 11.2782 88.755 11.2782H91.3652C92.7247 11.2782 93.5403 11.9142 93.8122 13.2391L98.2713 29.0339C98.5976 30.4649 98.8151 31.8958 98.8151 31.8958H98.9238C98.9238 31.8958 99.1413 30.4649 99.522 29.0339L104.199 13.2391C104.472 11.9672 105.342 11.3312 106.701 11.3312H108.768C110.127 11.3312 110.943 11.9672 111.269 13.2391L115.891 29.0339C116.326 30.4649 116.49 31.8958 116.49 31.8958H116.598C116.598 31.8958 116.816 30.4649 117.196 29.0339L121.601 13.2391C121.927 11.9142 122.743 11.2782 124.103 11.2782H126.604C128.235 11.2782 128.942 12.2852 128.507 13.7691L121.384 36.4536C121.003 37.727 120.133 38.3086 118.828 38.3086H115.184C113.825 38.3086 112.955 37.674 112.629 36.4006L108.442 22.8848C108.006 21.4538 107.789 19.9699 107.789 19.9699H107.679C107.679 19.9699 107.408 21.4538 106.973 22.8848L102.786 36.4006C102.458 37.674 101.643 38.3086 100.283 38.3086H96.5312C95.2261 38.3086 94.4104 37.727 94.0297 36.4536L86.8518 13.7691Z" fill="white"/>
<path fill-rule="evenodd" clip-rule="evenodd" d="M134.216 13.5041C134.216 12.0732 134.977 11.2782 136.445 11.2782H138.566C140.034 11.2782 140.796 12.0732 140.796 13.5041V15.147C140.796 15.73 140.687 16.366 140.687 16.366H140.796C142.155 13.7161 145.527 10.6422 149.877 10.6422C154.064 10.6422 156.837 12.5501 157.981 16.207H158.088C159.556 13.3981 163.201 10.6422 167.551 10.6422C173.316 10.6422 176.633 13.8221 176.633 20.9238V36.084C176.633 37.5666 175.817 38.3086 174.349 38.3086H172.01C170.488 38.3086 169.725 37.5666 169.725 36.084V22.1958C169.725 19.1219 169.128 16.79 165.919 16.79C161.242 16.79 158.851 21.4538 158.851 26.172V36.084C158.851 37.5666 158.088 38.3086 156.62 38.3086H154.227C152.759 38.3086 151.943 37.5666 151.943 36.084V22.1958C151.943 19.2809 151.508 16.79 148.246 16.79C143.351 16.79 141.068 21.6658 141.068 26.172V36.084C141.068 37.5666 140.306 38.3086 138.838 38.3086H136.445C134.977 38.3086 134.216 37.5666 134.216 36.084V13.5041Z" fill="white"/>
<path fill-rule="evenodd" clip-rule="evenodd" d="M200.884 21.7188C200.774 17.9559 198.437 15.73 195.283 15.73C191.748 15.73 189.247 18.1149 188.593 21.7188H200.884ZM195.446 10.6422C203.33 10.6422 207.736 16.101 207.736 23.5207C207.736 24.6881 206.703 25.801 205.343 25.801H188.431C188.865 30.6768 192.564 33.2208 196.751 33.2208C199.307 33.2208 201.428 32.2668 202.733 31.4718C204.092 30.8358 205.071 30.9935 205.778 32.2138L206.431 33.2738C207.083 34.4927 206.866 35.5527 205.669 36.2416C203.875 37.3546 200.612 38.9445 196.262 38.9445C187.07 38.9445 181.362 32.4788 181.362 24.7941C181.362 16.472 187.125 10.6422 195.446 10.6422Z" fill="white"/>
<path fill-rule="evenodd" clip-rule="evenodd" d="M212.737 13.5041C212.737 12.0732 213.497 11.2782 214.967 11.2782H217.359C218.828 11.2782 219.589 12.0732 219.589 13.5041V36.084C219.589 37.5666 218.828 38.3086 217.359 38.3086H214.967C213.497 38.3086 212.737 37.5666 212.737 36.084V13.5041ZM212.737 4.49445V2.90451C212.737 1.47356 213.497 0.678589 214.967 0.678589H217.359C218.828 0.678589 219.643 1.47356 219.643 2.90451V4.49445C219.643 5.9254 218.828 6.66737 217.359 6.66737H214.967C213.497 6.66737 212.737 5.9254 212.737 4.49445Z" fill="white"/>
<path fill-rule="evenodd" clip-rule="evenodd" d="M225.244 33.1678L225.897 32.2138C226.713 31.1008 227.637 30.9935 228.996 31.6838C230.302 32.3728 232.368 33.5387 235.196 33.5387C237.588 33.5387 239.058 32.4788 239.058 30.7828C239.058 26.384 225.299 28.0269 225.299 18.7509C225.299 13.4511 230.084 10.6422 235.903 10.6422C239.6 10.6422 242.156 11.8082 243.626 12.6031C244.875 13.2391 245.04 14.3521 244.441 15.571L243.896 16.525C243.244 17.797 242.21 17.9559 240.852 17.373C239.655 16.843 237.86 16.048 235.576 16.048C233.185 16.048 231.824 17.002 231.824 18.6979C231.824 23.1511 245.582 21.4008 245.582 30.6239C245.582 35.3937 241.449 38.9445 235.032 38.9445C230.575 38.9445 227.474 37.3016 225.788 36.1887C224.536 35.4997 224.429 34.3337 225.244 33.1678Z" fill="white"/>
<path fill-rule="evenodd" clip-rule="evenodd" d="M252.271 17.002H250.801C249.334 17.002 248.573 16.2601 248.573 14.7761V13.8751C248.573 12.4442 249.334 11.6492 250.855 11.6492H252.432V6.13742C252.432 4.70647 253.248 3.9115 254.718 3.9115H256.893C258.361 3.9115 259.177 4.70647 259.177 6.13742V11.6492H263.201C264.669 11.6492 265.485 12.4442 265.485 13.8751V14.7761C265.485 16.2601 264.669 17.002 263.255 17.002H259.177V27.497C259.177 31.5249 261.732 32.3198 263.634 32.5318C265.321 32.6908 265.92 33.2208 265.92 34.7048V36.3477C265.92 37.9376 264.995 38.575 263.092 38.575C258.143 38.575 252.271 35.9767 252.271 28.663V17.002Z" fill="white"/>
<path fill-rule="evenodd" clip-rule="evenodd" d="M288.161 21.7188C288.052 17.9559 285.714 15.73 282.56 15.73C279.025 15.73 276.524 18.1149 275.871 21.7188H288.161ZM282.723 10.6422C290.608 10.6422 295.012 16.101 295.012 23.5207C295.012 24.6881 293.979 25.801 292.621 25.801H275.708C276.143 30.6768 279.841 33.2208 284.028 33.2208C286.584 33.2208 288.704 32.2668 290.011 31.4718C291.369 30.8358 292.348 30.9935 293.055 32.2138L293.707 33.2738C294.361 34.4927 294.142 35.5527 292.946 36.2416C291.151 37.3546 287.889 38.9445 283.538 38.9445C274.348 38.9445 268.637 32.4788 268.637 24.7941C268.637 16.472 274.403 10.6422 282.723 10.6422Z" fill="white"/>
<path fill-rule="evenodd" clip-rule="evenodd" d="M300.014 13.5041C300.014 12.0731 300.775 11.2782 302.243 11.2782H304.364C305.832 11.2782 306.648 12.0731 306.648 13.5041V16.048C306.648 17.0549 306.485 17.9029 306.485 17.9029H306.593C307.681 14.67 310.726 11.0662 314.643 11.0662C316.164 11.0662 316.709 11.8081 316.709 13.2921V15.359C316.709 16.79 315.839 17.5849 314.37 17.5849C309.312 17.5849 306.865 22.4607 306.865 27.3909V36.084C306.865 37.5666 306.104 38.3085 304.636 38.3085H302.243C300.775 38.3085 300.014 37.5666 300.014 36.084V13.5041Z" fill="white"/>
</svg>
