<svg width="413" height="39" viewBox="0 0 413 39" fill="none" xmlns="http://www.w3.org/2000/svg">
<path fill-rule="evenodd" clip-rule="evenodd" d="M116.674 0.0426025C122.982 0.0426025 127.224 2.37452 129.29 3.80547C130.434 4.65344 130.487 5.7134 129.725 6.87936L128.746 8.4163C127.985 9.63526 126.953 9.74125 125.647 8.94628C123.962 7.88632 120.916 6.29638 116.946 6.29638C108.518 6.29638 104.004 12.2852 104.004 19.2279C104.004 26.278 108.681 32.6908 117.001 32.6908C121.352 32.6908 124.668 30.6769 126.464 29.4035C127.659 28.5569 128.746 28.5569 129.616 29.7759L130.705 31.2068C131.52 32.2668 131.465 33.3798 130.379 34.2807C128.204 35.9767 123.58 38.9446 116.729 38.9446C104.602 38.9446 96.7717 30.4119 96.7717 19.3339C96.7717 8.4163 104.983 0.0426025 116.674 0.0426025Z" fill="white"/>
<path fill-rule="evenodd" clip-rule="evenodd" d="M135.869 13.5041C135.869 12.0731 136.63 11.2782 138.098 11.2782H140.219C141.687 11.2782 142.503 12.0731 142.503 13.5041V16.048C142.503 17.0549 142.34 17.9029 142.34 17.9029H142.448C143.537 14.67 146.581 11.0662 150.498 11.0662C152.021 11.0662 152.564 11.8081 152.564 13.2921V15.359C152.564 16.79 151.694 17.5849 150.225 17.5849C145.169 17.5849 142.72 22.4607 142.72 27.3909V36.084C142.72 37.5666 141.959 38.3085 140.491 38.3085H138.098C136.63 38.3085 135.869 37.5666 135.869 36.084V13.5041Z" fill="white"/>
<path fill-rule="evenodd" clip-rule="evenodd" d="M173.228 21.7188C173.12 17.9559 170.781 15.73 167.627 15.73C164.093 15.73 161.591 18.1149 160.939 21.7188H173.228ZM167.79 10.6422C175.675 10.6422 180.08 16.101 180.08 23.5207C180.08 24.6881 179.047 25.801 177.687 25.801H160.776C161.211 30.6768 164.908 33.2208 169.095 33.2208C171.651 33.2208 173.772 32.2668 175.077 31.4718C176.437 30.8358 177.415 30.9935 178.122 32.2138L178.775 33.2738C179.427 34.4927 179.21 35.5527 178.014 36.2416C176.219 37.3546 172.956 38.9445 168.606 38.9445C159.416 38.9445 153.706 32.4788 153.706 24.7941C153.706 16.472 159.47 10.6422 167.79 10.6422Z" fill="white"/>
<path fill-rule="evenodd" clip-rule="evenodd" d="M182.852 13.7691C182.417 12.2852 183.178 11.2782 184.755 11.2782H187.365C188.725 11.2782 189.54 11.9142 189.812 13.2391L194.271 29.0339C194.598 30.4649 194.815 31.8958 194.815 31.8958H194.924C194.924 31.8958 195.141 30.4649 195.522 29.0339L200.199 13.2391C200.472 11.9672 201.342 11.3312 202.701 11.3312H204.768C206.127 11.3312 206.943 11.9672 207.269 13.2391L211.891 29.0339C212.326 30.4649 212.49 31.8958 212.49 31.8958H212.598C212.598 31.8958 212.816 30.4649 213.196 29.0339L217.601 13.2391C217.927 11.9142 218.743 11.2782 220.103 11.2782H222.604C224.235 11.2782 224.942 12.2852 224.507 13.7691L217.384 36.4536C217.003 37.727 216.133 38.3086 214.828 38.3086H211.184C209.825 38.3086 208.955 37.674 208.629 36.4006L204.442 22.8848C204.006 21.4538 203.789 19.9699 203.789 19.9699H203.679C203.679 19.9699 203.408 21.4538 202.973 22.8848L198.786 36.4006C198.458 37.674 197.643 38.3086 196.283 38.3086H192.531C191.226 38.3086 190.41 37.727 190.03 36.4536L182.852 13.7691Z" fill="white"/>
<path fill-rule="evenodd" clip-rule="evenodd" d="M230.216 13.5041C230.216 12.0732 230.977 11.2782 232.445 11.2782H234.566C236.034 11.2782 236.796 12.0732 236.796 13.5041V15.147C236.796 15.73 236.687 16.366 236.687 16.366H236.796C238.155 13.7161 241.527 10.6422 245.877 10.6422C250.064 10.6422 252.837 12.5501 253.981 16.207H254.088C255.556 13.3981 259.201 10.6422 263.551 10.6422C269.316 10.6422 272.633 13.8221 272.633 20.9238V36.084C272.633 37.5666 271.817 38.3086 270.349 38.3086H268.01C266.488 38.3086 265.725 37.5666 265.725 36.084V22.1958C265.725 19.1219 265.128 16.79 261.919 16.79C257.242 16.79 254.851 21.4538 254.851 26.172V36.084C254.851 37.5666 254.088 38.3086 252.62 38.3086H250.227C248.759 38.3086 247.943 37.5666 247.943 36.084V22.1958C247.943 19.2809 247.508 16.79 244.246 16.79C239.351 16.79 237.068 21.6658 237.068 26.172V36.084C237.068 37.5666 236.306 38.3086 234.838 38.3086H232.445C230.977 38.3086 230.216 37.5666 230.216 36.084V13.5041Z" fill="white"/>
<path fill-rule="evenodd" clip-rule="evenodd" d="M296.884 21.7188C296.774 17.9559 294.437 15.73 291.283 15.73C287.748 15.73 285.247 18.1149 284.593 21.7188H296.884ZM291.446 10.6422C299.33 10.6422 303.736 16.101 303.736 23.5207C303.736 24.6881 302.703 25.801 301.343 25.801H284.431C284.865 30.6768 288.564 33.2208 292.751 33.2208C295.307 33.2208 297.428 32.2668 298.733 31.4718C300.092 30.8358 301.071 30.9935 301.778 32.2138L302.431 33.2738C303.083 34.4927 302.866 35.5527 301.669 36.2416C299.875 37.3546 296.612 38.9445 292.262 38.9445C283.07 38.9445 277.362 32.4788 277.362 24.7941C277.362 16.472 283.125 10.6422 291.446 10.6422Z" fill="white"/>
<path fill-rule="evenodd" clip-rule="evenodd" d="M308.737 13.5041C308.737 12.0732 309.497 11.2782 310.967 11.2782H313.359C314.828 11.2782 315.589 12.0732 315.589 13.5041V36.084C315.589 37.5666 314.828 38.3086 313.359 38.3086H310.967C309.497 38.3086 308.737 37.5666 308.737 36.084V13.5041ZM308.737 4.49445V2.90451C308.737 1.47356 309.497 0.678589 310.967 0.678589H313.359C314.828 0.678589 315.643 1.47356 315.643 2.90451V4.49445C315.643 5.9254 314.828 6.66737 313.359 6.66737H310.967C309.497 6.66737 308.737 5.9254 308.737 4.49445Z" fill="white"/>
<path fill-rule="evenodd" clip-rule="evenodd" d="M321.244 33.1678L321.897 32.2138C322.713 31.1008 323.637 30.9935 324.996 31.6838C326.302 32.3728 328.368 33.5387 331.196 33.5387C333.588 33.5387 335.058 32.4788 335.058 30.7828C335.058 26.384 321.299 28.0269 321.299 18.7509C321.299 13.4511 326.084 10.6422 331.903 10.6422C335.6 10.6422 338.156 11.8082 339.626 12.6031C340.875 13.2391 341.04 14.3521 340.441 15.571L339.896 16.525C339.244 17.797 338.21 17.9559 336.852 17.373C335.655 16.843 333.86 16.048 331.576 16.048C329.185 16.048 327.824 17.002 327.824 18.6979C327.824 23.1511 341.582 21.4008 341.582 30.6239C341.582 35.3937 337.449 38.9445 331.032 38.9445C326.575 38.9445 323.474 37.3016 321.788 36.1887C320.536 35.4997 320.429 34.3337 321.244 33.1678Z" fill="white"/>
<path fill-rule="evenodd" clip-rule="evenodd" d="M348.271 17.002H346.801C345.334 17.002 344.573 16.2601 344.573 14.7761V13.8751C344.573 12.4442 345.334 11.6492 346.855 11.6492H348.432V6.13742C348.432 4.70647 349.248 3.9115 350.718 3.9115H352.893C354.361 3.9115 355.177 4.70647 355.177 6.13742V11.6492H359.201C360.669 11.6492 361.485 12.4442 361.485 13.8751V14.7761C361.485 16.2601 360.669 17.002 359.255 17.002H355.177V27.497C355.177 31.5249 357.732 32.3198 359.634 32.5318C361.321 32.6908 361.92 33.2208 361.92 34.7048V36.3477C361.92 37.9376 360.995 38.575 359.092 38.575C354.143 38.575 348.271 35.9767 348.271 28.663V17.002Z" fill="white"/>
<path fill-rule="evenodd" clip-rule="evenodd" d="M384.161 21.7188C384.052 17.9559 381.714 15.73 378.56 15.73C375.025 15.73 372.524 18.1149 371.871 21.7188H384.161ZM378.723 10.6422C386.608 10.6422 391.012 16.101 391.012 23.5207C391.012 24.6881 389.979 25.801 388.621 25.801H371.708C372.143 30.6768 375.841 33.2208 380.028 33.2208C382.584 33.2208 384.704 32.2668 386.011 31.4718C387.369 30.8358 388.348 30.9935 389.055 32.2138L389.707 33.2738C390.361 34.4927 390.142 35.5527 388.946 36.2416C387.151 37.3546 383.889 38.9445 379.538 38.9445C370.348 38.9445 364.637 32.4788 364.637 24.7941C364.637 16.472 370.403 10.6422 378.723 10.6422Z" fill="white"/>
<path fill-rule="evenodd" clip-rule="evenodd" d="M396.014 13.5041C396.014 12.0731 396.775 11.2782 398.243 11.2782H400.364C401.832 11.2782 402.648 12.0731 402.648 13.5041V16.048C402.648 17.0549 402.485 17.9029 402.485 17.9029H402.593C403.681 14.67 406.726 11.0662 410.643 11.0662C412.164 11.0662 412.709 11.8081 412.709 13.2921V15.359C412.709 16.79 411.839 17.5849 410.37 17.5849C405.312 17.5849 402.865 22.4607 402.865 27.3909V36.084C402.865 37.5666 402.104 38.3085 400.636 38.3085H398.243C396.775 38.3085 396.014 37.5666 396.014 36.084V13.5041Z" fill="white"/>
<path fill-rule="evenodd" clip-rule="evenodd" d="M0.0836182 11.7214C0.319225 12.6629 1.05242 13.148 2.28247 13.148H32.6802C34.1456 13.148 34.9613 12.4061 34.9613 10.9765V8.64593C34.9613 7.21634 34.1456 6.47437 32.6802 6.47437H2.28247C1.05242 6.47437 0.319225 6.95949 0.0836182 7.90101V11.7214Z" fill="white"/>
<path fill-rule="evenodd" clip-rule="evenodd" d="M76.7451 31.552C78.2105 31.552 79.0262 32.294 79.0262 33.7236V36.0541C79.0262 37.4837 78.2105 38.2257 76.7451 38.2257H42.7235C41.2023 38.2257 40.4424 37.4837 40.4424 36.0541V33.7236C40.4424 32.294 41.2023 31.552 42.7235 31.552H76.7451Z" fill="white"/>
<path fill-rule="evenodd" clip-rule="evenodd" d="M60.4579 19.001C61.9248 19.001 62.7404 19.7429 62.7404 21.1725V23.5031C62.7404 24.9327 61.9248 25.6733 60.4579 25.6733H42.7416C41.2204 25.6733 40.4591 24.9327 40.4591 23.5031V21.1725C40.4591 19.7429 41.2204 19.001 42.7416 19.001H60.4579Z" fill="white"/>
<path fill-rule="evenodd" clip-rule="evenodd" d="M32.7192 19.0471C34.186 19.0471 35.0017 19.7877 35.0017 21.2173V23.5479C35.0017 24.9775 34.186 25.7181 32.7192 25.7181H25.8716C24.3504 25.7181 23.5891 24.9775 23.5891 23.5479V21.2173C23.5891 19.7877 24.3504 19.0471 25.8716 19.0471H32.7192Z" fill="white"/>
</svg>
